<svg version="1.2" xmlns="http://www.w3.org/2000/svg" viewBox="0 0 957 247" width="957" height="247">
	<title>Roblox_Logo_2022</title>
	<style>
		.s0 { fill: #000000 } 
	</style>
	<path class="s0" d="m174.4 145l23.1 42.2h-42.8l-19.4-36.1h-18.4v36.1h-38.9v-127.7h71.1c29.4 0 48.1 16.3 48.1 45.7 0 18.9-8.7 32.4-22.8 39.8zm-57.5-52.3v25.2h27.6c8.2 0 13.3-4.8 13.3-12.7 0-7.9-5.1-12.5-13.3-12.5zm204.2 103.9l-116.4-31.4 31.2-116.2 58.2 15.7 58.2 15.7zm-22-85.5l-32.5-9-8.7 32.5 32.5 8.9zm186.5 40.1c0 24.5-15.6 36-39.9 36h-76.3v-127.7h73.7c24.3 0 39.9 12.5 39.9 34.5 0 13.8-5.1 23-14.8 29.4 11 4.8 17.4 14.5 17.4 27.8zm-78.3-61v18.9h25.3c6.9 0 11-3.1 11-9.7 0-6.2-4.1-9.2-11-9.2zm0 66.4h28.4c6.7 0 10.5-3.6 10.5-9.7 0-6.7-3.8-9.7-10.5-9.7h-28.4zm97.5-97.1h38.9v89.9h55.7v37.8h-94.6zm237.7 63.8c0 13.2-3.9 26-11.3 36.9-7.3 10.9-17.7 19.4-29.8 24.5-12.2 5-25.5 6.3-38.4 3.7-12.9-2.5-24.8-8.8-34.1-18.1-9.3-9.3-15.6-21.1-18.2-34-2.6-12.9-1.2-26.2 3.8-38.4 5-12.1 13.5-22.5 24.5-29.8 10.9-7.3 23.8-11.2 36.9-11.2 8.8 0 17.4 1.7 25.5 5.1 8.1 3.3 15.4 8.2 21.6 14.3 6.2 6.2 11.1 13.5 14.4 21.6 3.4 8.1 5.1 16.7 5.1 25.4zm-38.9 0c0-15.8-12.6-28.3-27.7-28.3-15.1 0-27.6 12.5-27.6 28.3 0 15.9 12.5 28.4 27.6 28.4 15.1 0 27.7-12.6 27.7-28.4zm132.5-2l42 65.8h-46.4l-23-37.5-23.8 37.5h-47l43.7-64.3-40.2-63.3h46.3l21.3 34.4 20.4-34.4h46.1z"/>
</svg>