<svg version="1.2" xmlns="http://www.w3.org/2000/svg" viewBox="0 0 957 247" width="957" height="247">
	<title>Roblox_Logo_2022</title>
	<style>
		.s0 { fill: #000000 } 
	</style>
	<path id="Discord-Logo-Black" class="s0" d="m177.5 62.1q-2.3 4.2-4.2 8.6c-12.2-1.8-24.6-1.8-36.8 0-1.3-2.9-2.7-5.8-4.3-8.6-11.4 1.9-22.6 5.4-33.1 10.2-21 31.1-26.7 61.3-23.9 91.2 12.3 9 26.1 16 40.7 20.4 3.3-4.4 6.2-9.2 8.7-14.1-4.7-1.7-9.3-3.9-13.7-6.5 1.2-0.8 2.3-1.7 3.4-2.5 25.7 12.1 55.5 12.1 81.3 0 1.1 0.9 2.2 1.7 3.4 2.5q-6.6 3.9-13.8 6.6c2.5 4.9 5.4 9.6 8.7 14 14.7-4.4 28.4-11.3 40.7-20.4 3.3-34.6-5.7-64.6-23.9-91.2-10.5-4.8-21.7-8.2-33.1-10.1zm-49.4 83c-7.9 0-14.4-7.2-14.4-16.1 0-8.9 6.3-16.1 14.4-16.1 8.2 0 14.6 7.3 14.5 16.1-0.1 8.9-6.4 16.1-14.5 16.1zm53.4 0c-7.9 0-14.4-7.2-14.4-16.1 0-8.9 6.3-16.1 14.4-16.1 8.2 0 14.6 7.3 14.5 16.1-0.1 8.9-6.4 16.1-14.5 16.1zm107.2-66.2h47.9q17.3 0 29.2 5.4c7.4 3.1 13.6 8.4 17.9 15.1 4.1 6.6 6.1 14.2 6 22 0.1 7.8-2.1 15.4-6.2 22-4.6 7-11.2 12.4-18.9 15.7q-12.7 5.7-31.5 5.7h-44.4c0 0 0-85.9 0-85.9zm44 64.1q11.6 0 17.9-5.8c4.2-4.2 6.2-9.8 6.2-15.9 0-5.7-1.7-10.9-5.6-14.9q-5.6-5.6-16.8-5.6h-15v42.2zm128.7 21.7c-6.3-1.6-12.4-4.1-17.9-7.5v-20.4c4.8 3.6 10.3 6.2 16.1 7.7 6.3 2 12.9 3 19.6 3 2.2 0.1 4.5-0.3 6.7-1.1 1.5-0.8 2.2-1.8 2.2-2.8 0-1.2-0.4-2.3-1.2-3.1-1.4-1.1-3.1-1.8-4.8-2.1l-14.7-3.3q-12.7-2.9-18-8.1c-3.6-3.6-5.5-8.6-5.2-13.7-0.1-4.6 1.6-9 4.6-12.4 3.7-3.8 8.2-6.6 13.3-8.1 6.5-2.1 13.3-3.1 20.1-2.9 6.4-0.1 12.7 0.6 18.9 2.2 5 1.2 9.8 3.1 14.2 5.6v19.3c-4.2-2.4-8.6-4.3-13.3-5.5-5.1-1.3-10.3-2-15.5-2q-11.5 0-11.5 3.9c-0.1 1.2 0.6 2.3 1.7 2.8q3.2 1.3 6.6 1.9l12.2 2.2q12 2.1 17.8 7.4 5.9 5.2 5.9 15.3c0.2 7.3-3.6 14-9.7 17.8q-9.7 6.5-27.7 6.5c-6.9 0-13.8-0.9-20.4-2.6zm86.8-2.6c-6.5-3-12.1-7.9-15.9-14-3.5-6-5.4-12.9-5.2-19.9-0.1-7 1.8-13.8 5.5-19.7 3.9-6.1 9.6-10.8 16.2-13.7 8-3.5 16.7-5.2 25.5-5q18.4 0 30.5 7.8v22.4c-3.1-2-6.4-3.6-10-4.7-3.9-1.3-8.1-1.9-12.2-1.9q-11.4 0-17.9 4.2c-6 3.4-8.2 11-4.8 17 1.1 2 2.7 3.6 4.6 4.8q6.3 4.2 18.2 4.2c4.1 0 8.2-0.6 12.1-1.8 3.6-1 7-2.5 10.2-4.3v21.7c-9.5 5.5-20.3 8.3-31.3 8.1-8.8 0.2-17.5-1.5-25.5-5.2zm87.2 0c-6.7-3-12.3-7.9-16.2-14-3.8-6-5.7-12.9-5.6-20-0.1-7 1.8-13.8 5.6-19.7 3.9-6 9.5-10.7 16.1-13.6 16.1-6.5 34.2-6.5 50.3 0 6.5 2.9 12.1 7.6 16 13.5 3.8 5.9 5.7 12.8 5.6 19.8 0.1 7-1.9 13.9-5.6 20-3.9 6.1-9.5 11-16.1 14-16 6.8-34.1 6.8-50.1 0 0 0 0 0 0 0zm37.2-21.8c3.1-3.1 4.7-7.4 4.5-11.8 0.2-4.4-1.4-8.6-4.5-11.7-3.3-3.1-7.7-4.6-12.2-4.4-4.5-0.2-9 1.4-12.3 4.4-3.1 3.1-4.7 7.3-4.5 11.7-0.2 4.4 1.5 8.7 4.5 11.8 3.3 3.1 7.7 4.8 12.3 4.5 4.5 0.3 8.9-1.3 12.2-4.5zm108.3-45.9v26.5c-3.7-2.2-7.9-3.3-12.2-3.1q-9.8 0-15 6-5.3 5.9-5.3 18.4v22.6h-30.1v-71.7h29.5v22.7q2.4-12.5 7.9-18.4c3.6-4 8.8-6 14-6 3.9 0 7.8 0.9 11.2 3zm99.8-17.9v88.3h-30v-16.1c-2.3 5.7-6.4 10.6-11.6 13.8-5.8 3.3-12.4 5-19.1 4.8-6.3 0.1-12.5-1.6-17.8-5-5.1-3.3-9.2-8.1-11.8-13.6-2.8-6.1-4.2-12.8-4.1-19.6-0.2-7 1.3-13.9 4.3-20.2 2.8-5.8 7.2-10.7 12.7-14 5.6-3.4 12-5.2 18.5-5.1q21.5 0 28.9 18.7v-32c0 0 30 0 30 0zm-34.4 63.4c3.1-3 4.7-7.2 4.6-11.6 0.1-4.2-1.6-8.3-4.6-11.2-7.1-5.7-17.3-5.7-24.4 0-3 3-4.7 7.1-4.5 11.4-0.2 4.3 1.5 8.4 4.6 11.4 3.2 3 7.6 4.6 12 4.4 4.5 0.3 8.9-1.3 12.3-4.4zm-431.2-66.1c8.3 0 15 6 15 13.4 0 7.5-6.7 13.5-15 13.5-8.3 0-15-6-15-13.5 0-7.4 6.7-13.4 15-13.4zm-15 36.2c9.6 4 20.4 4 30 0v55.2h-30z"/>
</svg>